<svg width="192" height="32" viewBox="0 0 192 32" fill="none" xmlns="http://www.w3.org/2000/svg">
<path d="M11.07 8.036L10.866 10.705C10.5713 11.1923 10.1973 11.6287 9.744 12.014C9.302 12.388 8.775 12.6883 8.163 12.915C7.56233 13.1303 6.871 13.238 6.089 13.238C4.91033 13.2267 3.862 12.966 2.944 12.456C2.026 11.946 1.30633 11.232 0.785 10.314C0.275 9.38467 0.02 8.291 0.02 7.033C0.02 5.79767 0.275 4.721 0.785 3.803C1.295 2.87367 2.009 2.154 2.927 1.644C3.85633 1.12267 4.94433 0.861999 6.191 0.861999C7.02967 0.861999 7.78333 0.975333 8.452 1.202C9.132 1.41733 9.72133 1.68933 10.22 2.018L10.56 4.415H10.407C10.1577 3.41767 9.64767 2.664 8.877 2.154C8.10633 1.63267 7.211 1.372 6.191 1.372C5.19367 1.372 4.32667 1.61 3.59 2.086C2.86467 2.55067 2.298 3.208 1.89 4.058C1.49333 4.89667 1.295 5.88267 1.295 7.016C1.295 8.14933 1.49333 9.141 1.89 9.991C2.298 10.841 2.859 11.504 3.573 11.98C4.29833 12.456 5.137 12.7053 6.089 12.728C6.89367 12.728 7.636 12.5807 8.316 12.286C9.00733 11.98 9.58533 11.487 10.05 10.807C10.5147 10.1157 10.8093 9.192 10.934 8.036H11.07ZM17.9 1.1V13H16.795V1.1H17.9ZM22.49 12.473V13H17.849V12.473H22.49ZM23.527 10.246L22.541 13H19.719L20.331 12.473C20.9317 12.473 21.419 12.3823 21.793 12.201C22.1783 12.0083 22.49 11.742 22.728 11.402C22.966 11.062 23.1757 10.6767 23.357 10.246H23.527ZM16.846 11.759V13H15.486V12.83C15.486 12.83 15.52 12.83 15.588 12.83C15.6673 12.83 15.707 12.83 15.707 12.83C16.0017 12.83 16.251 12.728 16.455 12.524C16.6703 12.3087 16.7837 12.0537 16.795 11.759H16.846ZM16.846 2.341H16.795C16.7837 2.04633 16.6703 1.797 16.455 1.593C16.251 1.37767 16.0017 1.27 15.707 1.27C15.707 1.27 15.6673 1.27 15.588 1.27C15.52 1.27 15.486 1.27 15.486 1.27V1.1H16.846V2.341ZM17.849 2.341V1.1H19.209V1.27C19.1977 1.27 19.158 1.27 19.09 1.27C19.022 1.27 18.988 1.27 18.988 1.27C18.6933 1.27 18.4383 1.37767 18.223 1.593C18.019 1.797 17.9113 2.04633 17.9 2.341H17.849ZM29.7469 1.1V13H28.6419V1.1H29.7469ZM28.6929 11.759V13H27.3329V12.83C27.3329 12.83 27.3669 12.83 27.4349 12.83C27.5142 12.83 27.5539 12.83 27.5539 12.83C27.8486 12.83 28.0979 12.728 28.3019 12.524C28.5172 12.3087 28.6306 12.0537 28.6419 11.759H28.6929ZM28.6929 2.341H28.6419C28.6306 2.04633 28.5172 1.797 28.3019 1.593C28.0979 1.37767 27.8486 1.27 27.5539 1.27C27.5539 1.27 27.5142 1.27 27.4349 1.27C27.3669 1.27 27.3329 1.27 27.3329 1.27V1.1H28.6929V2.341ZM29.6959 11.759H29.7469C29.7582 12.0537 29.8659 12.3087 30.0699 12.524C30.2852 12.728 30.5402 12.83 30.8349 12.83C30.8349 12.83 30.8689 12.83 30.9369 12.83C31.0049 12.83 31.0446 12.83 31.0559 12.83V13H29.6959V11.759ZM29.6959 2.341V1.1H31.0559V1.27C31.0446 1.27 31.0049 1.27 30.9369 1.27C30.8689 1.27 30.8349 1.27 30.8349 1.27C30.5402 1.27 30.2852 1.37767 30.0699 1.593C29.8659 1.797 29.7582 2.04633 29.7469 2.341H29.6959ZM47.204 0.861999L47.34 2.001L43.073 11.504C43.073 11.504 43.0277 11.6003 42.937 11.793C42.8577 11.9857 42.7727 12.218 42.682 12.49C42.5914 12.7507 42.529 13 42.495 13.238H42.325L42.087 12.167L47.204 0.861999ZM36.749 11.759V13H34.862V12.83C34.8734 12.83 34.9187 12.83 34.998 12.83C35.0887 12.83 35.134 12.83 35.134 12.83C35.44 12.83 35.712 12.7393 35.95 12.558C36.188 12.3653 36.3297 12.099 36.375 11.759H36.749ZM37.242 12.031C37.242 12.0423 37.242 12.0537 37.242 12.065C37.242 12.0763 37.242 12.0933 37.242 12.116C37.242 12.2973 37.3044 12.4673 37.429 12.626C37.565 12.7733 37.7237 12.847 37.905 12.847H38.16V13H37.123V12.031H37.242ZM37.65 0.861999H37.82L38.16 1.865L37.157 13H36.239L37.65 0.861999ZM37.82 0.861999L42.716 11.453L42.325 13.238L37.497 2.766L37.82 0.861999ZM47.357 0.861999L48.819 13H47.493L46.558 2.698L47.204 0.861999H47.357ZM48.309 11.759H48.666C48.7227 12.099 48.87 12.3653 49.108 12.558C49.346 12.7393 49.6124 12.83 49.907 12.83C49.907 12.83 49.9524 12.83 50.043 12.83C50.1337 12.83 50.179 12.83 50.179 12.83V13H48.309V11.759ZM47.408 12.031H47.527V13H46.49V12.847H46.745C46.9377 12.847 47.0964 12.7733 47.221 12.626C47.3457 12.4673 47.408 12.2973 47.408 12.116C47.408 12.0933 47.408 12.0763 47.408 12.065C47.408 12.0537 47.408 12.0423 47.408 12.031ZM59.0813 0.861999L64.1133 12.898H62.6683L58.7413 2.477L59.0813 0.861999ZM55.4263 11.759C55.347 11.9857 55.3357 12.1783 55.3923 12.337C55.449 12.4957 55.5397 12.6203 55.6643 12.711C55.8003 12.7903 55.9363 12.83 56.0723 12.83H56.2253V13H52.8083V12.83C52.8083 12.83 52.8367 12.83 52.8933 12.83C52.9387 12.83 52.9613 12.83 52.9613 12.83C53.222 12.83 53.4883 12.7507 53.7603 12.592C54.0437 12.422 54.276 12.1443 54.4573 11.759H55.4263ZM59.0813 0.861999L59.2343 2.052L54.9673 12.949H53.9473L58.2993 2.613C58.2993 2.613 58.3277 2.545 58.3843 2.409C58.4523 2.26167 58.526 2.086 58.6053 1.882C58.696 1.678 58.7697 1.47967 58.8263 1.287C58.8943 1.09433 58.9283 0.952666 58.9283 0.861999H59.0813ZM61.4783 8.359V8.869H56.1573V8.359H61.4783ZM62.2433 11.759H63.6373C63.8073 12.1443 64.034 12.422 64.3173 12.592C64.6007 12.7507 64.8727 12.83 65.1333 12.83C65.1333 12.83 65.156 12.83 65.2013 12.83C65.2467 12.83 65.2693 12.83 65.2693 12.83V13H61.4443V12.83H61.5973C61.8127 12.83 62.0053 12.7393 62.1753 12.558C62.3453 12.3653 62.368 12.099 62.2433 11.759ZM72.2495 1.151V13H71.1445V1.151H72.2495ZM76.6185 1.083V1.593H66.7755V1.083H76.6185ZM76.6185 1.542V2.919L76.4485 2.902V2.613C76.4485 2.32967 76.3465 2.09167 76.1425 1.899C75.9499 1.70633 75.7175 1.60433 75.4455 1.593V1.542H76.6185ZM76.6185 0.776999V1.27L74.5445 1.083C74.7939 1.083 75.0545 1.066 75.3265 1.032C75.6099 0.997999 75.8705 0.958333 76.1085 0.913C76.3465 0.867666 76.5165 0.822333 76.6185 0.776999ZM71.1955 11.759V13H69.8355V12.83C69.8355 12.83 69.8695 12.83 69.9375 12.83C70.0169 12.83 70.0565 12.83 70.0565 12.83C70.3512 12.83 70.6005 12.728 70.8045 12.524C71.0199 12.3087 71.1332 12.0537 71.1445 11.759H71.1955ZM72.1985 11.759H72.2495C72.2609 12.0537 72.3685 12.3087 72.5725 12.524C72.7879 12.728 73.0429 12.83 73.3375 12.83C73.3375 12.83 73.3715 12.83 73.4395 12.83C73.5189 12.83 73.5585 12.83 73.5585 12.83V13H72.1985V11.759ZM67.9485 1.542V1.593C67.6652 1.60433 67.4272 1.70633 67.2345 1.899C67.0419 2.09167 66.9455 2.32967 66.9455 2.613V2.902L66.7755 2.919V1.542H67.9485ZM66.7755 0.776999C66.8889 0.822333 67.0589 0.867666 67.2855 0.913C67.5235 0.958333 67.7842 0.997999 68.0675 1.032C68.3509 1.066 68.6115 1.083 68.8495 1.083L66.7755 1.27V0.776999ZM82.9283 1.1V13H81.8233V1.1H82.9283ZM81.8743 11.759V13H80.5143V12.83C80.5143 12.83 80.5483 12.83 80.6163 12.83C80.6957 12.83 80.7353 12.83 80.7353 12.83C81.03 12.83 81.2793 12.728 81.4833 12.524C81.6987 12.3087 81.812 12.0537 81.8233 11.759H81.8743ZM81.8743 2.341H81.8233C81.812 2.04633 81.6987 1.797 81.4833 1.593C81.2793 1.37767 81.03 1.27 80.7353 1.27C80.7353 1.27 80.6957 1.27 80.6163 1.27C80.5483 1.27 80.5143 1.27 80.5143 1.27V1.1H81.8743V2.341ZM82.8773 11.759H82.9283C82.9397 12.0537 83.0473 12.3087 83.2513 12.524C83.4667 12.728 83.7217 12.83 84.0163 12.83C84.0163 12.83 84.0503 12.83 84.1183 12.83C84.1863 12.83 84.226 12.83 84.2373 12.83V13H82.8773V11.759ZM82.8773 2.341V1.1H84.2373V1.27C84.226 1.27 84.1863 1.27 84.1183 1.27C84.0503 1.27 84.0163 1.27 84.0163 1.27C83.7217 1.27 83.4667 1.37767 83.2513 1.593C83.0473 1.797 82.9397 2.04633 82.9283 2.341H82.8773ZM97.6485 0.861999C97.6485 0.861999 97.6485 0.890333 97.6485 0.946999C97.6485 0.992333 97.6485 1.015 97.6485 1.015L90.0665 13H88.8085V12.847L95.9485 1.593H89.0465V1.083H95.8465C96.0731 1.083 96.3111 1.07167 96.5605 1.049C96.8211 1.02633 97.0478 0.997999 97.2405 0.964C97.4445 0.93 97.5805 0.895999 97.6485 0.861999ZM97.7675 12.49L97.6655 13H89.8965V12.49H97.7675ZM98.2775 10.382L97.7165 13H95.4725L95.5915 12.575L95.7785 12.49C96.4131 12.49 96.9175 12.286 97.2915 11.878C97.6768 11.47 97.9488 10.9713 98.1075 10.382H98.2775ZM90.2195 1.593C89.9361 1.60433 89.6981 1.70633 89.5055 1.899C89.3128 2.09167 89.2165 2.32967 89.2165 2.613V2.919H89.0465V1.542H90.2195V1.593ZM89.0465 0.776999C89.1598 0.822333 89.3298 0.867666 89.5565 0.913C89.7945 0.958333 90.0551 0.997999 90.3385 1.032C90.6218 1.066 90.8825 1.083 91.1205 1.083L89.0465 1.27V0.776999ZM107.515 0.861999L112.547 12.898H111.102L107.175 2.477L107.515 0.861999ZM103.86 11.759C103.78 11.9857 103.769 12.1783 103.826 12.337C103.882 12.4957 103.973 12.6203 104.098 12.711C104.234 12.7903 104.37 12.83 104.506 12.83H104.659V13H101.242V12.83C101.242 12.83 101.27 12.83 101.327 12.83C101.372 12.83 101.395 12.83 101.395 12.83C101.655 12.83 101.922 12.7507 102.194 12.592C102.477 12.422 102.709 12.1443 102.891 11.759H103.86ZM107.515 0.861999L107.668 2.052L103.401 12.949H102.381L106.733 2.613C106.733 2.613 106.761 2.545 106.818 2.409C106.886 2.26167 106.959 2.086 107.039 1.882C107.129 1.678 107.203 1.47967 107.26 1.287C107.328 1.09433 107.362 0.952666 107.362 0.861999H107.515ZM109.912 8.359V8.869H104.591V8.359H109.912ZM110.677 11.759H112.071C112.241 12.1443 112.467 12.422 112.751 12.592C113.034 12.7507 113.306 12.83 113.567 12.83C113.567 12.83 113.589 12.83 113.635 12.83C113.68 12.83 113.703 12.83 113.703 12.83V13H109.878V12.83H110.031C110.246 12.83 110.439 12.7393 110.609 12.558C110.779 12.3653 110.801 12.099 110.677 11.759ZM127.537 8.036L127.333 10.705C127.038 11.1923 126.664 11.6287 126.211 12.014C125.769 12.388 125.242 12.6883 124.63 12.915C124.029 13.1303 123.338 13.238 122.556 13.238C121.377 13.2267 120.329 12.966 119.411 12.456C118.493 11.946 117.773 11.232 117.252 10.314C116.742 9.38467 116.487 8.291 116.487 7.033C116.487 5.79767 116.742 4.721 117.252 3.803C117.762 2.87367 118.476 2.154 119.394 1.644C120.323 1.12267 121.411 0.861999 122.658 0.861999C123.496 0.861999 124.25 0.975333 124.919 1.202C125.599 1.41733 126.188 1.68933 126.687 2.018L127.027 4.415H126.874C126.624 3.41767 126.114 2.664 125.344 2.154C124.573 1.63267 123.678 1.372 122.658 1.372C121.66 1.372 120.793 1.61 120.057 2.086C119.331 2.55067 118.765 3.208 118.357 4.058C117.96 4.89667 117.762 5.88267 117.762 7.016C117.762 8.14933 117.96 9.141 118.357 9.991C118.765 10.841 119.326 11.504 120.04 11.98C120.765 12.456 121.604 12.7053 122.556 12.728C123.36 12.728 124.103 12.5807 124.783 12.286C125.474 11.98 126.052 11.487 126.517 10.807C126.981 10.1157 127.276 9.192 127.401 8.036H127.537ZM134.367 1.1V13H133.262V1.1H134.367ZM133.313 11.759V13H131.953V12.83C131.953 12.83 131.987 12.83 132.055 12.83C132.134 12.83 132.174 12.83 132.174 12.83C132.468 12.83 132.718 12.728 132.922 12.524C133.137 12.3087 133.25 12.0537 133.262 11.759H133.313ZM133.313 2.341H133.262C133.25 2.04633 133.137 1.797 132.922 1.593C132.718 1.37767 132.468 1.27 132.174 1.27C132.174 1.27 132.134 1.27 132.055 1.27C131.987 1.27 131.953 1.27 131.953 1.27V1.1H133.313V2.341ZM134.316 11.759H134.367C134.378 12.0537 134.486 12.3087 134.69 12.524C134.905 12.728 135.16 12.83 135.455 12.83C135.455 12.83 135.489 12.83 135.557 12.83C135.625 12.83 135.664 12.83 135.676 12.83V13H134.316V11.759ZM134.316 2.341V1.1H135.676V1.27C135.664 1.27 135.625 1.27 135.557 1.27C135.489 1.27 135.455 1.27 135.455 1.27C135.16 1.27 134.905 1.37767 134.69 1.593C134.486 1.797 134.378 2.04633 134.367 2.341H134.316ZM146.188 0.861999C147.4 0.861999 148.466 1.12267 149.384 1.644C150.302 2.154 151.016 2.87367 151.526 3.803C152.047 4.73233 152.308 5.81467 152.308 7.05C152.308 8.28533 152.047 9.36767 151.526 10.297C151.016 11.2263 150.302 11.9517 149.384 12.473C148.466 12.983 147.4 13.238 146.188 13.238C144.986 13.238 143.927 12.983 143.009 12.473C142.091 11.9517 141.371 11.2263 140.85 10.297C140.34 9.36767 140.085 8.28533 140.085 7.05C140.085 5.81467 140.34 4.73233 140.85 3.803C141.371 2.87367 142.091 2.154 143.009 1.644C143.927 1.12267 144.986 0.861999 146.188 0.861999ZM146.188 12.728C147.151 12.728 147.99 12.49 148.704 12.014C149.429 11.538 149.99 10.875 150.387 10.025C150.795 9.175 150.999 8.18333 150.999 7.05C150.999 5.91667 150.795 4.925 150.387 4.075C149.99 3.225 149.429 2.562 148.704 2.086C147.99 1.61 147.151 1.372 146.188 1.372C145.236 1.372 144.397 1.61 143.672 2.086C142.958 2.562 142.397 3.225 141.989 4.075C141.592 4.925 141.394 5.91667 141.394 7.05C141.394 8.18333 141.592 9.175 141.989 10.025C142.397 10.875 142.958 11.538 143.672 12.014C144.397 12.49 145.236 12.728 146.188 12.728ZM157.499 0.844999L167.376 11.385L167.529 13.238L157.652 2.715L157.499 0.844999ZM157.533 11.793V13H156.122V12.83C156.122 12.83 156.173 12.83 156.275 12.83C156.377 12.83 156.434 12.83 156.445 12.83C156.728 12.83 156.972 12.728 157.176 12.524C157.38 12.32 157.482 12.0763 157.482 11.793H157.533ZM158.264 11.793C158.264 12.0763 158.366 12.32 158.57 12.524C158.774 12.728 159.018 12.83 159.301 12.83C159.312 12.83 159.369 12.83 159.471 12.83C159.573 12.83 159.624 12.83 159.624 12.83V13H158.213V11.793H158.264ZM157.499 0.844999L158.247 1.797L158.264 13H157.482V2.97C157.482 2.392 157.454 1.89333 157.397 1.474C157.352 1.05467 157.329 0.844999 157.329 0.844999H157.499ZM167.529 1.1V11.062C167.529 11.4247 167.54 11.776 167.563 12.116C167.586 12.4447 167.608 12.7167 167.631 12.932C167.665 13.136 167.682 13.238 167.682 13.238H167.529L166.764 12.337V1.1H167.529ZM168.889 1.1V1.27C168.889 1.27 168.838 1.27 168.736 1.27C168.634 1.27 168.583 1.27 168.583 1.27C168.3 1.27 168.056 1.372 167.852 1.576C167.648 1.76867 167.54 2.01233 167.529 2.307H167.478V1.1H168.889ZM165.387 1.1H166.798V2.307H166.764C166.753 2.01233 166.645 1.76867 166.441 1.576C166.248 1.372 166.005 1.27 165.71 1.27C165.71 1.27 165.659 1.27 165.557 1.27C165.455 1.27 165.398 1.27 165.387 1.27V1.1ZM175.469 1.1V13H174.364V1.1H175.469ZM180.059 12.473V13H175.418V12.473H180.059ZM179.328 6.88V7.39H175.418V6.88H179.328ZM180.059 1.1V1.627H175.418V1.1H180.059ZM181.096 10.246L180.11 13H177.288L177.9 12.473C178.5 12.473 178.988 12.3823 179.362 12.201C179.747 12.0083 180.059 11.742 180.297 11.402C180.535 11.062 180.744 10.6767 180.926 10.246H181.096ZM179.328 7.356V8.478H179.158V8.223C179.158 7.99633 179.078 7.80367 178.92 7.645C178.761 7.475 178.568 7.39 178.342 7.39V7.356H179.328ZM179.328 5.792V6.914H178.342V6.88C178.568 6.86867 178.761 6.78367 178.92 6.625C179.078 6.455 179.158 6.25667 179.158 6.03V5.792H179.328ZM180.059 1.576V2.936H179.889V2.63C179.889 2.358 179.792 2.12567 179.6 1.933C179.407 1.729 179.169 1.62133 178.886 1.61V1.576H180.059ZM180.059 0.793999V1.287L177.985 1.1C178.234 1.1 178.495 1.083 178.767 1.049C179.05 1.015 179.311 0.975333 179.549 0.929999C179.787 0.884666 179.957 0.839333 180.059 0.793999ZM174.415 11.759V13H173.055V12.83C173.055 12.83 173.089 12.83 173.157 12.83C173.236 12.83 173.276 12.83 173.276 12.83C173.57 12.83 173.82 12.728 174.024 12.524C174.239 12.3087 174.352 12.0537 174.364 11.759H174.415ZM174.415 2.341H174.364C174.364 2.04633 174.256 1.797 174.041 1.593C173.825 1.37767 173.57 1.27 173.276 1.27C173.276 1.27 173.242 1.27 173.174 1.27C173.106 1.27 173.072 1.27 173.072 1.27L173.055 1.1H174.415V2.341ZM188.663 0.861999C188.845 0.861999 189.037 0.873333 189.241 0.896C189.457 0.918666 189.661 0.952666 189.853 0.997999C190.057 1.032 190.239 1.07167 190.397 1.117C190.567 1.151 190.698 1.19067 190.788 1.236V3.123H190.635C190.635 2.579 190.448 2.154 190.074 1.848C189.7 1.53067 189.247 1.372 188.714 1.372C188.091 1.372 187.587 1.57033 187.201 1.967C186.816 2.35233 186.623 2.80567 186.623 3.327C186.623 3.54233 186.669 3.79733 186.759 4.092C186.861 4.37533 187.043 4.64167 187.303 4.891L190.652 7.985C190.992 8.30233 191.219 8.64233 191.332 9.005C191.446 9.36767 191.502 9.719 191.502 10.059C191.502 10.9997 191.213 11.7647 190.635 12.354C190.069 12.9433 189.298 13.238 188.323 13.238C188.051 13.238 187.728 13.2097 187.354 13.153C186.992 13.0963 186.635 13 186.283 12.864C185.943 12.7167 185.66 12.5297 185.433 12.303C185.399 12.1217 185.382 11.895 185.382 11.623C185.382 11.351 185.405 11.0677 185.45 10.773C185.496 10.467 185.558 10.1893 185.637 9.94H185.79C185.734 10.518 185.807 11.0223 186.011 11.453C186.215 11.8837 186.51 12.2123 186.895 12.439C187.292 12.6543 187.74 12.7507 188.238 12.728C188.862 12.694 189.394 12.4787 189.836 12.082C190.29 11.674 190.516 11.13 190.516 10.45C190.516 10.1213 190.46 9.82667 190.346 9.566C190.233 9.294 190.069 9.06167 189.853 8.869L186.589 5.843C186.249 5.52567 186.011 5.18 185.875 4.806C185.739 4.42067 185.671 4.06367 185.671 3.735C185.671 3.259 185.785 2.8 186.011 2.358C186.238 1.916 186.572 1.559 187.014 1.287C187.468 1.00367 188.017 0.861999 188.663 0.861999ZM190.788 1.032V1.389H189.496V1.032H190.788Z" fill="white"/>
<path d="M9.704 19.832V21.64H6.728V31H4.488V21.64H1.512V19.832H9.704ZM20.3624 31.112C19.317 31.112 18.357 30.8667 17.4824 30.376C16.6077 29.8853 15.9144 29.208 15.4024 28.344C14.8904 27.4693 14.6344 26.4827 14.6344 25.384C14.6344 24.296 14.8904 23.32 15.4024 22.456C15.9144 21.5813 16.6077 20.8987 17.4824 20.408C18.357 19.9173 19.317 19.672 20.3624 19.672C21.4184 19.672 22.3784 19.9173 23.2424 20.408C24.117 20.8987 24.805 21.5813 25.3064 22.456C25.8184 23.32 26.0744 24.296 26.0744 25.384C26.0744 26.4827 25.8184 27.4693 25.3064 28.344C24.805 29.208 24.117 29.8853 23.2424 30.376C22.3677 30.8667 21.4077 31.112 20.3624 31.112ZM20.3624 29.112C21.0344 29.112 21.6264 28.9627 22.1384 28.664C22.6504 28.3547 23.0504 27.9173 23.3384 27.352C23.6264 26.7867 23.7704 26.1307 23.7704 25.384C23.7704 24.6373 23.6264 23.9867 23.3384 23.432C23.0504 22.8667 22.6504 22.4347 22.1384 22.136C21.6264 21.8373 21.0344 21.688 20.3624 21.688C19.6904 21.688 19.093 21.8373 18.5704 22.136C18.0584 22.4347 17.6584 22.8667 17.3704 23.432C17.0824 23.9867 16.9384 24.6373 16.9384 25.384C16.9384 26.1307 17.0824 26.7867 17.3704 27.352C17.6584 27.9173 18.0584 28.3547 18.5704 28.664C19.093 28.9627 19.6904 29.112 20.3624 29.112ZM41.1329 31H38.8929L33.8209 23.336V31H31.5809V19.816H33.8209L38.8929 27.496V19.816H41.1329V31ZM56.0665 19.832L52.2905 27.112V31H50.0505V27.112L46.2585 19.832H48.7865L51.1865 24.936L53.5705 19.832H56.0665Z" fill="white"/>
</svg>
